<?xml version="1.0" standalone="no"?>
<!DOCTYPE svg PUBLIC "-//W3C//DTD SVG 20010904//EN"
 "http://www.w3.org/TR/2001/REC-SVG-20010904/DTD/svg10.dtd">
<svg version="1.0" xmlns="http://www.w3.org/2000/svg"
 width="32.000000pt" height="32.000000pt" viewBox="0 0 32.000000 32.000000"
 preserveAspectRatio="xMidYMid meet">

<g transform="translate(0.000000,32.000000) scale(0.100000,-0.100000)"
fill="#000000" stroke="none">
<path d="M6 311 c-4 -5 4 -11 16 -13 19 -2 28 -17 49 -78 15 -41 24 -81 22
-88 -12 -30 18 -42 101 -40 l81 2 -80 5 c-64 5 -80 9 -83 23 -3 13 10 17 75
23 43 4 85 11 94 16 13 7 39 76 39 103 0 3 -56 6 -124 6 -116 0 -125 1 -131
20 -3 11 -10 20 -15 20 -5 0 -15 3 -23 6 -8 3 -18 1 -21 -5z m290 -64 c3 -3 1
-20 -3 -38 -10 -36 -24 -42 -130 -51 l-52 -5 -16 45 c-8 25 -15 50 -15 55 0
10 206 4 216 -6z"/>
<path d="M74 56 c-10 -26 4 -46 31 -46 23 0 26 4 23 27 -3 32 -44 46 -54 19z
m46 -15 c0 -14 -18 -23 -30 -16 -6 4 -8 11 -5 16 8 12 35 12 35 0z"/>
<path d="M214 48 c-12 -40 45 -60 60 -21 4 9 1 22 -5 29 -17 21 -47 17 -55 -8z
m38 -20 c-15 -15 -26 -4 -18 18 5 13 9 15 18 6 9 -9 9 -15 0 -24z"/>
</g>
</svg>
